<svg xmlns="http://www.w3.org/2000/svg" width="120" height="120" viewBox="0 0 120 120">
      
    <path fill="#985277"
        d="M78.2499792,9.20184124 C78.9674469,10.9967552 78.094004,13.0334429 76.29909,13.7509105 L75.6246553,14.0251057 L74.9759836,14.2987663 L74.6610891,14.4357403 L74.6610891,14.4357403 L74.0497438,14.7106638 C69.4153019,16.8440962 66.9347164,19.1765675 65.1445166,24.0004327 L70,24.0009313 C72.7614237,24.0009313 75,26.2395075 75,29.0009313 L75.0003041,35.9086396 C89.6592947,41.8425891 100,56.2141596 100,73.0009313 C100,95.0923213 82.09139,113.000931 60,113.000931 C37.90861,113.000931 20,95.0923213 20,73.0009313 C20,56.2137761 30.3411778,41.8419324 45.0007006,35.9082329 L45,29.0009313 C45,26.2395075 47.2385763,24.0009313 50,24.0009313 L57.789074,23.9994719 C60.017152,16.6210423 63.2399851,12.5948397 68.856348,9.50007587 L69.4866461,9.16183819 L70.1368396,8.83045429 C70.577027,8.61165508 71.0307574,8.39694144 71.4985898,8.18534617 L72.2109847,7.87017113 L72.9449517,7.55894822 C73.1932493,7.45578534 73.4452121,7.35316025 73.70091,7.25095204 C75.4958239,6.53348442 77.5325116,7.40692727 78.2499792,9.20184124 Z" />
</svg>