<?xml version="1.0" encoding="UTF-8"?>
<svg width="533px" height="497px" viewBox="0 0 533 497" version="1.1" xmlns="http://www.w3.org/2000/svg" xmlns:xlink="http://www.w3.org/1999/xlink">
    <g id="Page-1" stroke="none" stroke-width="1" fill="none" fill-rule="evenodd">
        <path d="M378.694193,15.1087334 C415.964145,15.1087334 450.94188,30.458998 477.180668,58.3306656 C503.108242,85.8721663 517.526857,122.501734 517.782213,161.473391 C518.169236,220.636098 476.259992,292.835906 393.219539,376.067876 C367.805211,401.540437 269.324613,481.443009 266.392775,481.443009 C263.460938,481.443009 164.979995,401.540437 139.565666,376.067876 C56.5252137,292.835906 14.6159691,220.636098 15.0029924,161.473391 C15.2583481,122.501734 29.6769636,85.8721663 55.604537,58.3306656 C81.843325,30.458998 116.821061,15.1087334 154.091013,15.1087334 C199.186284,15.1087334 240.664893,38.2093867 266.392871,75.3514283 C292.120312,38.2093867 333.598922,15.1087334 378.694193,15.1087334 Z" id="Path" stroke="#985277" stroke-width="30" fill="#FFCFD2" fill-rule="nonzero" stroke-linejoin="round"></path>
        <path d="M441.843886,97.9855988 C427.091114,83.1360707 407.937447,74.9587058 387.909985,74.9587058 C379.646836,74.9587058 372.947741,81.657801 372.947741,89.9209495 C372.947741,98.1840979 379.646836,104.883193 387.909985,104.883193 C399.906712,104.883193 411.522401,109.923474 420.616452,119.076378 C431.433157,129.963904 437.331273,144.882258 437.224543,161.082378 C437.170679,169.345527 443.824887,176.088511 452.088036,176.143373 L452.188781,176.143373 C460.406046,176.143373 467.094169,169.509114 467.14903,161.278882 C467.30763,137.04703 458.320309,114.56975 441.843886,97.9855988 L441.843886,97.9855988 Z" id="Path" fill="#985277" fill-rule="nonzero"></path>
    </g>
</svg>