<svg height="512" viewBox="0 0 513.292 513.292" width="512" xmlns="http://www.w3.org/2000/svg">
    <path fill="#985277"
        d="M470.486 61.96c-26.137-26.309-60.456-40.798-96.636-40.798-48.017 0-91.942 26.124-117.204 67.491-25.262-41.367-69.188-67.491-117.204-67.491-37.364 0-72.43 15.389-98.735 43.331C14.714 92.104.259 128.826.003 167.896-.385 227.208 41.63 299.59 124.88 383.032c60.663 60.802 120.437 104.408 122.952 106.235a14.982 14.982 0 008.815 2.863c3.109 0 6.22-.965 8.856-2.894 2.496-1.827 61.839-45.428 122.276-106.224 82.895-83.386 125.122-155.695 125.51-214.92.264-40.391-14.937-78.083-42.803-106.132zM366.771 361.592c-45.445 45.752-91.373 82.316-110.156 96.758-18.883-14.42-65.131-50.999-110.768-96.778-76.114-76.353-116.172-143.258-115.844-193.48.205-31.47 11.765-60.958 32.547-83.035 20.577-21.857 47.885-33.895 76.893-33.895 46.073 0 87.457 31.2 102.978 77.636a15 15 0 0028.454 0c15.521-46.436 56.904-77.636 102.978-77.636 28.129 0 54.89 11.344 75.353 31.941 22.192 22.338 34.297 52.451 34.085 84.792-.331 50.308-40.622 117.287-116.52 193.697z" />
    <path fill="#985277"
        d="M427.921 104.248c-14.79-14.887-33.992-23.085-54.07-23.085-8.284 0-15 6.716-15 15s6.716 15 15 15c12.027 0 23.672 5.053 32.789 14.229 10.844 10.915 16.757 25.871 16.65 42.112-.054 8.284 6.617 15.044 14.901 15.098l.101.001c8.238 0 14.943-6.651 14.998-14.902.159-24.293-8.851-46.827-25.369-63.453z" />
    </svg>