<svg height="512" width="512" xmlns="http://www.w3.org/2000/svg">
    <style>
        .color {
            fill: #36453B;
        }
    </style>
    <path class="color"
        d="M466.09 58.101l8.426 23.691c.361 1.014 1.075 1.818 1.976 2.224l21.048 9.483c2.974 1.34 2.974 6.078 0 7.417l-21.048 9.483c-.901.406-1.615 1.21-1.976 2.224l-8.426 23.691c-1.19 3.347-5.4 3.347-6.59 0l-8.425-23.691c-.361-1.014-1.075-1.818-1.976-2.224l-21.048-9.483c-2.974-1.34-2.974-6.078 0-7.417l21.048-9.483c.901-.406 1.615-1.21 1.976-2.224l8.425-23.691c1.19-3.347 5.399-3.347 6.59 0zM79.106 32.165l6.25 17.573c.268.752.797 1.349 1.466 1.65l15.613 7.034c2.206.994 2.206 4.508 0 5.502L86.822 70.96c-.668.301-1.198.897-1.466 1.65l-6.25 17.574c-.883 2.483-4.005 2.483-4.888 0l-6.25-17.574c-.268-.752-.797-1.349-1.466-1.65l-15.613-7.035c-2.206-.994-2.206-4.508 0-5.502l15.613-7.034c.669-.301 1.198-.897 1.466-1.65l6.25-17.573c.883-2.484 4.005-2.484 4.888-.001z" />
    <ellipse class="color" cx="24.731" cy="149.046" rx="12.5" ry="12.501" transform="rotate(-83 24.698 148.96)" />
    <path class="color"
        d="M386.372 32.219c0 5.362-4.347 9.709-9.709 9.709s-9.709-4.347-9.709-9.709 4.347-9.709 9.709-9.709c5.362.001 9.709 4.347 9.709 9.709z" />
    <g>
        <path class="color"
            d="M434.975 395.068c12.262-13.091 26.268-37.015 23.358-76.646-4.243-57.767-34.991-79.386-50.535-86.686 1.289-13.027 1.465-37.634-12.415-53.359.185-3.347.191-6.354.117-8.842-.197-6.62-1.63-28.77-11.802-35.83-10.17-7.059-31.424-.652-37.694 1.48a104.577 104.577 0 00-9.95 3.972c-1.483-18.664-6.783-38.24-20.89-49.234-10.608-8.268-24.263-10.462-40.727-6.638-.339-20.956-2.888-44.349-7.781-71.292A13.904 13.904 0 00253.877.038a13.885 13.885 0 00-14.322 9.789c-8.917 24.141-13.525 41.851-14.732 56.736-6.979 9.681-10.622 20.163-10.932 31.305-5.263-8.81-11.681-15.743-16.173-20.03-4.751-4.533-21.202-19.168-33.315-17.051-12.121 2.111-22.651 21.436-25.59 27.308-4.802 9.596-12.358 28.57-9.004 47.832.875 5.025 2.199 9.708 3.906 14.067-4.979 2.808-10.277 4.931-15.764 6.26-7.035 1.704-12.145 7.197-13.336 14.335-.743 4.454.165 8.798 2.434 12.382-12.576 18.189-23.448 41.255-27.287 49.742-31.253 17.661-49.144 48.776-46.889 82.009 1.779 26.202 13.103 49.181 33.659 68.301 15.42 14.343 40.503 25.178 57.776 30.006-8.579 32.141-13.576 69.055-13.535 88.63.012 5.658 4.602 10.236 10.257 10.235h.021c5.665-.012 10.248-4.614 10.236-10.278-.042-20.116 5.728-60.227 15.458-92.528a10.257 10.257 0 00-5.37-12.199l-2.55-1.228a10.255 10.255 0 00-2.529-.834c-14.216-2.712-41.514-13.543-55.793-26.824-16.611-15.45-25.75-33.844-27.163-54.67-1.772-26.101 13.216-50.689 39.114-64.171a10.264 10.264 0 004.68-5.03c.127-.294 12.288-28.287 26.31-48.798 20.565 12.773 35.018 20.577 43.001 23.202 7.399 2.434 14.959 3.626 22.419 3.626 1.571 0 3.135-.068 4.694-.173v35.889a6.154 6.154 0 1012.308 0v-37.843a67.762 67.762 0 0021.186-9.481v31.602a6.154 6.154 0 0012.308 0V206.15c1.911.137 3.86.219 5.833.219 5.126 0 10.357-.493 15.166-1.622v27.131a6.154 6.154 0 0012.308 0v-32.353c3.539-2.548 6.11-5.902 7.15-10.223.165-.651.28-1.369.374-2.016 1.451-5.799 2.309-11.427 2.579-16.873l1.763.498a93.768 93.768 0 0110.801 3.787 6.219 6.219 0 00-.036.658v73.479a6.154 6.154 0 1012.308 0v-67.931c4.69 2.377 10.48.827 13.315-3.694a60.638 60.638 0 011.553-2.37c11.852-17.079 40.322-24.629 49.263-23.902 3.802 8.112 6.697 37.435-5.155 54.512-4.264 6.144-9.092 10.781-14.35 13.782a10.258 10.258 0 00-4.657 12.117c5.786 17.562 6.185 36.29 1.155 54.167l-17.244 57.012c-.019.06-.036.121-.053.181-7.043 24.937-14.751 42.495-25.625 58.284a10.26 10.26 0 00-2.866 6.692l-.01.239a10.258 10.258 0 005.729 9.638c26.742 20.706 48.04 50.965 61.661 87.646 1.534 4.134 5.451 6.69 9.616 6.69.265 0 .53-.014.796-.035.526.083 1.059.136 1.597.136 1.458 0 2.942-.313 4.35-.974 1.701-.798 41.719-19.966 46.872-56.378 3.062-21.637-5.382-37.55-13.221-47.242a80.712 80.712 0 0014.643-12.337zM245.024 71.544c.033-.245.05-.49.073-.735.445-9.068 2.675-19.339 5.492-29.211 1.734 13.001 2.792 25.029 3.195 36.269l-8.777-6.16c.008-.054.011-.109.017-.163zm-6.087 10.94l16.097 11.298c.305.596.665 1.162 1.059 1.703 5.181 6.746 5.869 15.416 2.16 29.196l-22.939-15.992a10.29 10.29 0 00-.173-1.607c-1.766-9.014-.554-16.973 3.796-24.598zm25.827 61.741c.398.278.821.483 1.253.655 4.426 9.781 5.623 20.557 3.629 32.664l-17.476-11.263c.473-14.807-4.923-28.816-15.306-39.563a53.555 53.555 0 00-9.373-7.718c.264-.067.531-.127.787-.211zm-96.758-62.758c6.476 2.431 21.381 14.205 29.352 28.785-10.965.08-21.957 3.427-31.332 10.203a54.73 54.73 0 00-11.609 11.34 70.114 70.114 0 01-3.601 4.379 57.124 57.124 0 01-.796-3.767c-3.509-20.143 11.199-45.179 17.986-50.94zm2.285 125.378c-8.112-2.668-26.254-12.869-51.083-28.725-2.826-1.805-2.59-4.669-2.451-5.504.139-.833.844-3.612 4.094-4.399 16.94-4.104 32.346-14.403 43.383-28.998a42.391 42.391 0 019.002-8.789c7.338-5.305 15.956-7.898 24.538-7.898 11.087 0 22.115 4.33 30.237 12.738 8.27 8.56 12.473 19.779 11.832 31.589-.631 11.65-6.131 22.611-15.091 30.073-14.996 12.49-35.357 16.197-54.461 9.913zm73.239-12.806a54.738 54.738 0 006.55-14.462l15.364 9.902c-3.845 2.791-11.826 4.812-21.914 4.56zm65.709-35.557a113.95 113.95 0 00-19.129-7.312l-9.733-2.749a62.889 62.889 0 00-4.483-11.395c.181-.393.347-.797.48-1.221 3.102-9.849 5.829-21.461 4.243-32.917 9.36-1.911 16.708-.854 21.927 3.208 10.478 8.155 13.329 27.868 13.327 45.785a63.744 63.744 0 00-6.632 6.601zm90.677 236.529a10.258 10.258 0 00-2.696 18.213c.196.135 19.528 13.779 16.023 38.55-2.466 17.422-18.055 30.041-27.674 36.283-13.933-33.223-33.938-61.281-58.541-82.019 9.96-15.976 17.378-33.807 24.12-57.658l17.246-57.019c.019-.06.036-.121.053-.182 5.459-19.326 5.714-39.477.803-58.742 5.204-4.076 9.953-9.194 14.184-15.289a56.898 56.898 0 003.86-6.453c1.319 10.048.208 20.461-.832 25.629-1.11 5.412 2.176 10.708 7.546 12.007 1.608.421 39.415 11.001 43.865 71.594 4.417 60.133-36.29 74.525-37.957 75.086z" />
        <path class="color"
            d="M157.058 265.185c1.394-10.278-5.833-19.775-16.11-21.168-10.274-1.398-19.774 5.832-21.169 16.11-1.394 10.278 5.833 19.774 16.11 21.169.854.116 1.703.172 2.542.172 9.258-.001 17.349-6.86 18.627-16.283zm-12.196-1.655a6.509 6.509 0 01-7.318 5.569 6.51 6.51 0 01-5.569-7.318 6.512 6.512 0 017.318-5.569 6.46 6.46 0 014.3 2.506 6.465 6.465 0 011.269 4.812zM261.845 251.534c-7.587-1.032-15.11.957-21.198 5.59-6.088 4.634-10.007 11.361-11.036 18.942-1.03 7.581.956 15.11 5.589 21.198 4.634 6.089 11.362 10.008 18.943 11.037 1.307.178 2.612.265 3.911.265 6.224 0 12.249-2.021 17.287-5.856 6.088-4.634 10.007-11.361 11.036-18.942s-.956-15.11-5.59-21.198-11.361-10.008-18.942-11.036zm12.336 30.579a16.231 16.231 0 01-6.294 10.803c-3.472 2.642-7.765 3.775-12.089 3.188s-8.16-2.822-10.803-6.294-3.775-7.765-3.188-12.089 2.822-8.16 6.294-10.802a16.208 16.208 0 019.858-3.34c.74 0 1.485.05 2.231.151a16.231 16.231 0 0110.803 6.294 16.233 16.233 0 013.188 12.089zM180.809 295.04c-27.414 0-28.692 18.523-29.927 36.437-2.705 39.26 3.229 45.6 5.463 47.987 2.014 2.152 4.553 3.289 7.341 3.289h.027l34.526-.093c1.902-.005 5.545-.642 8.57-4.849 7.449-10.362 8.064-40.491 4.197-52.103-4.753-14.278-12.481-30.668-30.197-30.668zm16.24 75.316l-32.114.086c-1.529-2.971-3.457-13.715-1.776-38.118 1.419-20.564 3.096-24.976 17.649-24.976 5.771 0 12.01 2.695 18.52 22.249 3.407 10.23 1.331 35.602-2.279 40.759zM260.715 329.114c-18.071 11.771-23.996 36.986-13.211 56.208a6.152 6.152 0 008.379 2.356 6.153 6.153 0 002.355-8.378c-7.678-13.682-3.553-31.569 9.194-39.872 2.849-1.855 3.653-5.668 1.798-8.516s-5.666-3.654-8.515-1.798zM92.286 346.067a6.154 6.154 0 003.887 10.93 6.124 6.124 0 003.878-1.379c17.102-13.904 20.871-39.531 8.402-57.125a6.155 6.155 0 00-10.042 7.117c8.796 12.412 6.048 30.561-6.125 40.457zM177.121 163.66c-2.483 0-4.972-.896-6.943-2.71-4.168-3.837-4.436-10.326-.6-14.493 14.126-15.344 30.157-15.572 31.937-15.553 0 0 10.587.009 10.992 9.992s-11.085 10.52-11.085 10.52c-.357.008-8.813.312-16.75 8.934a10.24 10.24 0 01-7.551 3.31z" />
    </g>
</svg>