<svg height="512" width="512" xmlns="http://www.w3.org/2000/svg">
    <style>
        .color {
            fill: #36453B;
        }
    </style>
    <path class="color"
        d="M467.525 118.105l8.354 23.49c.358 1.006 1.066 1.803 1.959 2.205l20.87 9.403c2.948 1.328 2.948 6.026 0 7.355l-20.87 9.403c-.893.403-1.602 1.2-1.959 2.205l-8.354 23.49c-1.18 3.319-5.354 3.319-6.534 0l-8.354-23.49c-.358-1.006-1.066-1.803-1.959-2.205l-20.87-9.403c-2.948-1.328-2.948-6.026 0-7.355l20.87-9.403c.894-.403 1.602-1.2 1.959-2.205l8.354-23.49c1.18-3.319 5.353-3.319 6.534 0zM70.305 18.642l6.197 17.425c.265.746.791 1.337 1.453 1.636l15.481 6.975c2.187.985 2.187 4.47 0 5.456l-15.481 6.975c-.663.299-1.188.89-1.453 1.636L70.305 76.17c-.875 2.462-3.972 2.462-4.847 0l-6.197-17.425c-.265-.746-.791-1.337-1.453-1.636l-15.481-6.975c-2.187-.985-2.187-4.47 0-5.456l15.481-6.975c.663-.299 1.188-.89 1.453-1.636l6.197-17.425c.876-2.462 3.972-2.462 4.847 0z" />
    <circle class="color" cx="23.475" cy="124.702" r="12.395" />
    <path class="color"
        d="M399.733 92.442c0 5.317-4.31 9.627-9.627 9.627s-9.627-4.31-9.627-9.627 4.31-9.626 9.627-9.626c5.316 0 9.627 4.31 9.627 9.626z" />
    <g>
        <path class="color"
            d="M438.17 399.246a83.709 83.709 0 0013.813-14.903c10.943-15.161 22.104-41.663 13.139-81.819-8.865-39.703-28.452-60.167-43.322-70.343-8.797-6.02-16.974-9.269-22.892-11.008-.589-14.571-4.514-43.215-25.46-56.246a41.46 41.46 0 00-9.343-4.301c-.336-10.335-2.627-19.585-4.504-25.547-1.972-6.264-9.309-27.014-20.918-31.007-11.617-3.999-30.16 7.846-35.569 11.57-.115.079-.241.17-.359.252-5.381-12.166-12.645-20.979-21.753-26.295-13.338-7.783-29.485-7.588-48.148.531-2.351-5.038-5.662-9.748-10.311-13.794-6.198-20.548-15.417-42.905-28.134-68.22a13.794 13.794 0 00-15.498-7.8 13.788 13.788 0 00-10.889 13.317c-1.73 25.458-1.161 43.595 1.852 58.092-5.446 15.46-4.409 30.596 3.097 45.039.309.594.683 1.127 1.085 1.632-.019.097-.034.194-.053.291a54.288 54.288 0 00-3.994-.026c-8.16-8.619-17.651-14.5-23.843-17.776-5.754-3.046-25.386-12.572-36.385-7.291-10.996 5.281-15.837 26.559-17.059 32.954-1.996 10.451-4.092 30.591 4.299 48.067a76.22 76.22 0 003.882 7.079 60.039 60.039 0 01-7.611 5.238v-.001c-6.216 3.589-9.541 10.243-8.677 17.366.603 4.983 3.146 9.249 6.976 12.053a100.995 100.995 0 00-2.569 6.334c-7.735 21.27-12.228 48.201-13.67 57.772-25.062 25.275-33.749 59.786-22.64 90.889 8.758 24.523 25.757 43.398 50.524 56.102 16.153 8.285 38.558 12.073 55.823 12.889-5.979 18.407-9.762 40.215-12.723 59.984-.832 5.555 2.996 10.732 8.551 11.564 5.551.835 10.732-2.996 11.564-8.551 3.579-23.897 8.36-50.793 16.675-69.085a10.172 10.172 0 00-10.139-14.341c-14.293 1.242-43.264-1.735-60.468-10.559-20.014-10.265-33.691-25.354-40.653-44.845-8.724-24.428-1.049-51.93 20.03-71.774a10.182 10.182 0 003.11-6.059c.044-.331 4.524-33.365 13.131-57.036a87.748 87.748 0 012.773-6.658c22.352 6.141 37.775 9.381 45.931 9.641.777.025 1.552.037 2.325.037 23.262 0 44.527-11.137 57.237-30.101.241-.359.461-.73.693-1.095a81.824 81.824 0 005.007-.868c16.392-3.437 35.109-12.677 34.409-27.447 0-.096-.005-.192-.009-.288-.002-.028-.001-.056-.003-.085l-.001-.064-.001-.008v-.001c-.002-.031-.008-.058-.01-.089a6.37 6.37 0 00-.04-.335c-.039-.407-.077-.814-.141-1.191a94.58 94.58 0 00-.326-4.756 92.312 92.312 0 0122.124 3.135c5.337 1.437 10.851-1.655 12.405-6.964.303-1.035.571-1.887.843-2.679 6.707-19.491 31.852-34.369 40.566-36.084 5.814 6.713 16.479 33.914 9.772 53.404-2.412 7.011-5.769 12.737-9.978 17.019a10.17 10.17 0 00-1.177 12.816c10.254 15.198 15.682 32.959 15.7 51.371l-1.09 59.052a11.66 11.66 0 00-.002.188c0 26.48-2.786 45.672-9.315 64.172a10.169 10.169 0 003.192 11.29c27.913 22.591 50.742 62.179 64.284 111.471 1.24 4.515 5.335 7.479 9.801 7.479.892 0 1.799-.118 2.7-.366a10.108 10.108 0 004.64-2.776c8.109-5.667 38.874-29.383 38.874-63.039-.004-22.792-11.45-37.877-21.15-46.569zM200.584 74.377l-10.072-3.405c-.007-.047-.019-.093-.027-.14a10.217 10.217 0 00-.115-.609c-.01-.043-.014-.086-.024-.129-2.111-8.751-2.861-19.145-2.944-29.322 5.286 11.881 9.656 23.027 13.182 33.605zm-12.832 8.543l18.471 6.246.047.047c.165.177.337.346.514.51.052.049.102.099.155.146a9.835 9.835 0 00.769.622c6.815 4.969 9.893 13.024 10.218 27.169l-26.293-8.798a10.145 10.145 0 00-.614-1.48c-4.2-8.08-5.273-15.991-3.267-24.462zm-68.962 29.434c5.346.449 17.152 4.975 27.565 12.55-6.6 3.475-12.555 8.344-17.343 14.527a54.238 54.238 0 00-7.874 14.034 68.659 68.659 0 01-5.935 11.999c-8.525-18.279-1.305-45.829 3.587-53.11zm87.473 83.406c-10.773 16.076-29.144 25.291-49.035 24.66-8.466-.269-28.576-4.901-56.627-13.04-3.192-.927-3.77-3.717-3.871-4.551-.1-.831-.206-3.672 2.665-5.329v-.001c14.967-8.642 26.743-22.747 33.16-39.717a42.027 42.027 0 016.107-10.878c8.095-10.453 20.476-16.09 33.038-16.09 6.987 0 14.031 1.745 20.421 5.376 10.26 5.83 17.394 15.327 20.089 26.74 2.657 11.26.49 23.226-5.947 32.83zm17.054-8.004a54.25 54.25 0 002.186-15.588l17.384 5.123c-2.877 3.729-9.902 7.882-19.57 10.465zm.456-28.821c-3.69-14.218-12.742-26.035-25.624-33.355a53.119 53.119 0 00-11.075-4.721c.233-.137.47-.27.69-.421 0 0 42.737 14.223 43.195 14.265 6.947 8.066 11.099 17.984 12.589 30.059zm50.539-11.156a113.004 113.004 0 00-20.225-1.822h-2.61c-3.043-8.134-7.482-15.32-13.32-21.488.062-.424.108-.853.116-1.293.079-4.133.018-8.523-.39-12.977 13.758-6.69 24.789-7.74 32.852-3.042 7.268 4.235 12.302 12.777 15.758 22.819-4.598 5.002-8.992 10.964-12.181 17.803zm144.167 336.488c-10.867-33.744-29.612-74.22-61.261-102.434 5.756-18.709 8.256-38.366 8.262-64.149l1.089-59.055.002-.188c0-19.911-5.187-39.21-15.065-56.269 3.866-5.292 7.021-11.456 9.414-18.411.25-.727.478-1.457.695-2.187.356.192.709.389 1.055.603 14.792 9.166 16.505 36.713 15.918 46.536-.349 5.484 3.642 10.244 9.112 10.76 1.78.198 43.74 5.547 57.569 67.483 13.691 61.319-27.444 82.108-29.144 82.935-3.545 1.667-5.844 5.209-5.868 9.126a10.123 10.123 0 005.699 9.198c.94.471 23.02 11.829 23.02 37.605 0 16.205-11.432 30.028-20.497 38.447z" />
        <path class="color"
            d="M152.671 291.084c0 6.931-5.618 12.549-12.549 12.549s-12.549-5.618-12.549-12.549 5.618-12.549 12.549-12.549 12.549 5.618 12.549 12.549z" />
        <circle class="color" cx="267.42" cy="291.084" r="12.549" />
        <path class="color"
            d="M199.24 352.702c-12.088 0-21.922-10.454-21.922-23.303a6.102 6.102 0 0112.204 0c0 6.12 4.36 11.099 9.718 11.099s9.717-4.979 9.717-11.099a6.102 6.102 0 0112.204 0c0 12.85-9.834 23.303-21.921 23.303zM148.774 177.843c-1.511 0-3.044-.338-4.49-1.051-5.037-2.484-7.107-8.582-4.623-13.619 9.146-18.547 24.33-23.25 26.032-23.726 0 0 9.093-2.661 12.077 7.155 2.983 9.816-6.43 12.384-6.43 12.384-.337.108-8.297 2.761-13.436 13.183a10.173 10.173 0 01-9.13 5.674z" />
    </g>
</svg>