<svg height="512" viewBox="0 0 512.058 512.058" width="512" xmlns="http://www.w3.org/2000/svg">
    <style>
        .color {
            fill: #36453B;
        }
    </style>
    <path class="color"
        d="M7.134 381.619a6.044 6.044 0 01-5.126-9.235c13.147-21.147 30.363-22.568 31.089-22.617 3.333-.24 6.216 2.283 6.444 5.612a6.041 6.041 0 01-5.542 6.439c-.628.064-12.086 1.438-21.727 16.947a6.04 6.04 0 01-5.138 2.854zM200.053 355.901c-.687 0-1.376-.029-2.067-.086-14.129-1.163-25.494-14.014-30.4-34.374-2.354-9.765.022-20.946 5.911-27.823 3.648-4.258 8.302-6.386 13.1-5.99l33.786 2.784c4.801.395 9.042 3.255 11.943 8.052 4.683 7.748 5.198 19.167 1.277 28.416-7.773 18.339-20.198 29.021-33.55 29.021zm-14.57-56.233c-1.13 0-2.332 1.257-2.807 1.812-2.897 3.383-4.976 10.353-3.342 17.129 3.571 14.817 11.098 24.458 19.644 25.162 8.525.7 17.551-7.575 23.497-21.607 2.72-6.418 1.812-13.634-.493-17.445-.391-.647-1.428-2.165-2.593-2.261l-33.785-2.784a1.225 1.225 0 00-.121-.006zM166.158 265.156a6.042 6.042 0 01-5.963-7.061c.287-1.681-.097-3.372-1.083-4.764s-2.454-2.316-4.135-2.603a6.35 6.35 0 00-4.766 1.083 6.339 6.339 0 00-2.603 4.135 6.037 6.037 0 01-6.973 4.939 6.041 6.041 0 01-4.939-6.973c1.714-10.038 11.273-16.811 21.316-15.096a18.348 18.348 0 0111.964 7.532 18.345 18.345 0 013.132 13.784 6.045 6.045 0 01-5.95 5.024zM290.419 286.382a6.041 6.041 0 01-5.963-7.06 6.344 6.344 0 00-1.083-4.766 6.343 6.343 0 00-4.135-2.602 6.354 6.354 0 00-4.766 1.083 6.339 6.339 0 00-2.603 4.135c-.562 3.289-3.679 5.508-6.973 4.939a6.041 6.041 0 01-4.939-6.973 18.343 18.343 0 017.532-11.963 18.341 18.341 0 0113.785-3.133 18.342 18.342 0 0111.962 7.531 18.346 18.346 0 013.133 13.784 6.045 6.045 0 01-5.95 5.025zM103.253 84.61c-1.878 0-3.733-.525-5.35-1.538L60.867 59.85c-4.712-2.955-6.137-9.17-3.183-13.883l25.86-41.245c2.953-4.711 9.169-6.138 13.882-3.183l37.037 23.221a10.07 10.07 0 013.183 13.884l-25.86 41.246c-1.802 2.91-5.112 4.739-8.533 4.72zM80.1 48.135l19.971 12.522 15.161-24.181-19.973-12.521zM357.289 99.094c-3.928.04-7.711-2.436-9.239-6.063L328.678 48.37c-2.214-5.102.129-11.034 5.231-13.247l40.104-17.396a10.058 10.058 0 017.707-.128 10.066 10.066 0 015.54 5.359l19.372 44.661c2.214 5.102-.129 11.034-5.231 13.247l-40.104 17.396a10.073 10.073 0 01-4.008.832zm-6.125-49.502l11.357 26.183 21.625-9.381-11.357-26.183zM466.841 243.073a10.07 10.07 0 01-6.987-2.818l-31.482-30.329c-4.006-3.859-4.125-10.234-.267-14.24l33.775-35.06a10.065 10.065 0 017.066-3.082c2.674-.028 5.251.963 7.175 2.816l31.482 30.329c4.006 3.859 4.125 10.234.267 14.24l-33.775 35.06a10.067 10.067 0 01-7.254 3.084zm-17.242-40.665l16.976 16.354 19.8-20.555-16.976-16.354zM478.029 98.005c-18.16 0-32.933-14.773-32.933-32.933s14.773-32.934 32.933-32.934 32.933 14.774 32.933 32.934c0 18.159-14.773 32.933-32.933 32.933zm0-45.725c-7.053 0-12.791 5.738-12.791 12.792 0 7.053 5.738 12.79 12.791 12.79s12.791-5.738 12.791-12.79c0-7.054-5.738-12.792-12.791-12.792zM38.173 211.377c-18.16 0-32.934-14.773-32.934-32.933s14.774-32.933 32.934-32.933 32.933 14.773 32.933 32.933-14.773 32.933-32.933 32.933zm0-45.723c-7.054 0-12.792 5.738-12.792 12.791s5.738 12.791 12.792 12.791c7.053 0 12.791-5.738 12.791-12.791s-5.738-12.791-12.791-12.791zM189.16 169.966c-2.438 0-4.882-.88-6.818-2.661-4.092-3.767-4.356-10.138-.589-14.23 13.87-15.067 29.609-15.325 31.358-15.271 0 0 10.623-.371 10.476 9.331s-10.569 10.81-10.569 10.81c-.349.009-8.653.306-16.446 8.772a10.045 10.045 0 01-7.412 3.249z" />
    <path class="color"
        d="M442.346 397.186c12.04-12.855 25.793-36.346 22.936-75.259-4.166-56.721-34.357-77.949-49.62-85.117 1.266-12.79 1.439-36.952-12.19-52.393.182-3.286.187-6.238.115-8.682-.194-6.5-1.6-28.249-11.589-35.181-9.987-6.93-30.854-.64-37.012 1.453-2.735.93-6.1 2.213-9.765 3.898-1.458-18.325-6.668-37.546-20.518-48.34-10.419-8.12-23.822-10.29-39.99-6.533-.333-20.572-2.837-43.538-7.64-69.986a13.652 13.652 0 00-12.545-11.738 13.648 13.648 0 00-14.064 9.611c-8.755 23.705-13.28 41.095-14.466 55.709-6.853 9.506-10.43 19.8-10.734 30.741-5.167-8.651-11.469-15.46-15.88-19.669-4.664-4.452-20.826-18.818-32.712-16.742-11.902 2.073-22.242 21.048-25.128 26.814-4.715 9.422-12.133 28.052-8.84 46.964.858 4.932 2.135 9.549 3.811 13.829-4.881 2.749-10.075 4.829-15.453 6.133h.001c-6.908 1.673-11.926 7.066-13.095 14.076-.73 4.374.162 8.637 2.389 12.157-12.348 17.86-23.022 40.508-26.793 48.841-30.688 17.341-48.255 47.893-46.041 80.524 1.486 21.884 9.778 41.469 24.637 58.389-15.19-3.108-27.761-3.271-37.163 1.22-6.997 3.342-12.037 9.146-14.572 16.785-3.085 9.298-1.74 18.618 3.89 26.954 4.428 6.554 11.59 12.705 21.895 18.802 17.727 10.489 42.898 19.879 72.043 30.752l7.74 2.89c-1.309 10.892-1.994 20.532-1.978 27.761.012 5.555 4.518 10.049 10.07 10.049h.022c5.562-.012 10.061-4.53 10.05-10.093-.042-19.75 5.624-59.134 15.178-90.853 2.269-7.019-3.837-12.665-10.259-14.002-13.96-2.664-40.765-13.3-54.783-26.339-16.311-15.171-25.284-33.231-26.671-53.679-1.74-25.628 12.977-49.772 38.407-63.01a10.074 10.074 0 004.594-4.937c.125-.29 12.092-27.81 25.835-47.916 20.19 12.54 34.381 20.203 42.222 22.782 7.265 2.389 14.689 3.56 22.013 3.56 15.604-.001 30.758-5.316 42.972-15.488.326-.271.634-.559.953-.837 3.834.55 7.493.815 11.385.817 15.029 0 30.994-4.286 33.996-16.758 1.363-6.241 2.696-12.604 2.899-18.548l1.733.489a91.533 91.533 0 0122.034 9.482c4.703 2.811 10.791 1.341 13.698-3.303a58.857 58.857 0 011.521-2.321c11.637-16.768 39.604-24.163 48.371-23.469 3.733 7.965 6.576 36.757-5.062 53.526-4.185 6.031-8.925 10.583-14.09 13.533a10.07 10.07 0 00-4.571 11.896c5.681 17.244 6.072 35.633 1.133 53.185l-16.932 55.983c-.018.059-.034.118-.051.178-6.769 23.965-14.172 40.986-24.495 56.235a6560.525 6560.525 0 00-11.054 4.14l-8.151 3.057c-5.21 1.949-7.852 7.752-5.902 12.961 1.949 5.208 7.752 7.854 12.962 5.902l8.17-3.064c18.909-7.097 38.118-14.304 54.535-19.128l12.069 30.451c-14.865 6.949-33.519 13.914-54.267 21.654l-8.171 3.052c-5.21 1.949-7.852 7.752-5.902 12.961 3.721 9.778 14.104 6.015 21.113 2.858 9.926-3.703 19.375-7.232 28.242-10.693 7.409 11.972 13.805 25.081 19.037 39.169 2.347 6.506 10.286 8.015 16.063 5.71 1.67-.784 40.964-19.604 46.023-55.357 2.631-18.595-3.391-32.884-10.095-42.54.208-1.94.229-3.9.039-5.87a79.64 79.64 0 0011.448-10.088zm-402.804 3.849c.823-2.482 2.061-3.964 4.137-4.956 5.764-2.752 15.996-1.808 28.759 1.271L61.9 426.138a136.966 136.966 0 01-5.433-3.028c-20.27-11.993-17.926-19.059-16.925-22.075zm96.719 17.802c-2.92 11.469-5.379 23.421-7.308 34.857l-3.66-1.367c-19.963-7.448-37.985-14.178-52.562-20.866l11.332-30.955c15.801 4.701 34.105 11.54 52.198 18.331zm119.572-339.31c.024-.198.047-.396.06-.595.003-.045.011-.089.013-.135.437-8.903 2.627-18.988 5.392-28.679 1.703 12.764 2.741 24.574 3.137 35.609l-8.617-6.048c.007-.051.009-.102.015-.152zm-5.976 10.733l15.804 11.093c.3.586.653 1.142 1.04 1.673 5.088 6.625 5.763 15.137 2.12 28.666L246.3 115.991a10.16 10.16 0 00-.17-1.578c-1.734-8.85-.543-16.665 3.727-24.153zm-69.648-.999c6.359 2.388 20.994 13.947 28.82 28.264-10.766.078-21.559 3.364-30.763 10.019a53.74 53.74 0 00-11.401 11.134 68.826 68.826 0 01-3.534 4.299 56.6 56.6 0 01-.782-3.698c-3.444-19.779 10.998-44.361 17.66-50.018zm70.538 83.847c-.62 11.439-6.02 22.202-14.818 29.529-14.723 12.263-34.715 15.901-53.476 9.734-7.968-2.621-25.781-12.637-50.157-28.206-2.775-1.772-2.544-4.584-2.407-5.404.136-.818.829-3.546 4.02-4.319 16.634-4.032 31.762-14.143 42.597-28.473a41.628 41.628 0 018.84-8.63c7.205-5.208 15.667-7.755 24.094-7.755 10.885 0 21.714 4.252 29.689 12.507 8.12 8.405 12.245 19.42 11.618 31.017zm3.619 26.688a53.708 53.708 0 006.432-14.2l15.088 9.724c-3.774 2.739-11.609 4.725-21.52 4.476zM280.01 183.6l-17.161-11.06c.465-14.539-4.833-28.294-15.028-38.847a52.58 52.58 0 00-9.203-7.579c.26-.065.522-.124.774-.207l35.825 24.976c.391.271.806.475 1.23.643 4.346 9.604 5.52 20.186 3.563 32.074zm38.877-18.717a112.101 112.101 0 00-18.783-7.181l-9.558-2.699a61.788 61.788 0 00-4.402-11.189c.178-.385.34-.781.471-1.197 3.046-9.67 5.724-21.071 4.167-32.32 9.19-1.876 16.405-.841 21.53 3.148 10.291 8.009 13.087 27.365 13.084 44.958a62.575 62.575 0 00-6.509 6.48zm59.616 237.863c12.251-2.868 22.062-3.682 27.658-1.008 2.076.992 3.314 2.474 4.137 4.955 1.001 3.017 3.346 10.083-16.924 22.076a131.402 131.402 0 01-3.72 2.108zm42.505 50.118c-2.42 17.105-17.724 29.495-27.169 35.624-4.435-10.569-9.501-20.6-15.138-30.034 9.367-4.05 17.765-8.11 24.929-12.349 6.43-3.804 11.637-7.63 15.718-11.562 1.767 5.155 2.657 11.277 1.66 18.321zm1.162-64.229a27.644 27.644 0 00-7.327-5.072c-15.431-7.371-39.387-2.218-69.486 7.957 5.551-11.573 10.266-24.556 14.682-40.176l16.934-55.989c.018-.059.034-.118.051-.178 5.36-18.975 5.611-38.763.789-57.679 5.11-4.003 9.775-9.027 13.928-15.012a55.927 55.927 0 003.788-6.333c1.295 9.866.206 20.088-.815 25.163-1.09 5.314 2.136 10.514 7.409 11.79 1.579.413 38.701 10.801 43.071 70.298 2.664 36.287-11.403 55.599-23.024 65.231z" />
</svg>