<svg height="512" viewBox="0 0 503.442 503.442" width="512" xmlns="http://www.w3.org/2000/svg">
    <style>
        .color {
            fill: #36453B;
        }
    </style>
    <path class="color"
        d="M471.707 392.575a82.29 82.29 0 0013.582-14.654c10.759-14.908 21.734-40.967 12.918-80.451-8.717-39.04-27.977-59.162-42.598-69.168-8.65-5.92-16.69-9.114-22.51-10.824-.222-5.634-.939-13.399-2.952-21.45-6.129-24.511-19.516-34.351-31.269-38.087-.331-10.162-2.583-19.257-4.429-25.119-1.939-6.159-9.153-26.562-20.568-30.489s-29.656 7.715-34.975 11.377c-.114.078-.239.169-.355.25-6.211-14.043-14.946-23.509-26.062-28.197-12.181-5.136-26.514-4.159-42.666 2.86-2.311-4.954-5.569-9.584-10.141-13.562-6.094-20.203-15.159-42.187-27.665-67.08a13.556 13.556 0 00-15.238-7.67 13.559 13.559 0 00-10.707 13.096c-1.701 25.032-1.142 42.866 1.821 57.12-5.354 15.2-4.335 30.083 3.044 44.285a9.939 9.939 0 001.069 1.608c-.019.095-.035.189-.053.284a53.129 53.129 0 00-4.823.016 9.98 9.98 0 00-2.296-3.228c-15.766-14.796-43.672-27.396-56.03-21.462-10.812 5.192-15.572 26.114-16.773 32.403-1.963 10.276-4.023 30.081 4.228 47.264 1.256 2.622 1.751 4.147 3.643 7.101a59.013 59.013 0 01-7.31 5.009c-6.112 3.529-9.381 10.072-8.532 17.077.589 4.864 3.056 9.034 6.774 11.791-1.02 2.326-1.667 4.154-2.442 6.289-7.604 20.913-12.022 47.394-13.44 56.806-24.644 24.853-33.185 58.787-22.262 89.37 10.165 28.464 32.85 44.906 49.027 54.798 3.31 2.024 10.208 5.645 16.659 8.555-6.774 18.967-10.882 42.395-14.039 63.467-.818 5.462 2.946 10.553 8.408 11.371.502.075 1.001.111 1.494.111 4.867 0 9.134-3.56 9.877-8.52 3.521-23.499 8.223-49.947 16.398-67.93a10.003 10.003 0 00-6.547-13.807c-4.045-1.069-16.646-7.15-21.815-10.311-21.896-13.389-34.426-27.101-40.627-44.462-8.578-24.02-1.031-51.062 19.695-70.574a10.008 10.008 0 003.058-5.958c.043-.325 4.448-32.808 12.912-56.084.871-2.397 1.476-4.129 2.64-6.569 22.025 6.054 37.218 9.247 45.249 9.503.764.024 1.526.036 2.286.036 22.873 0 43.783-10.951 56.28-29.598.231-.345.442-.701.665-1.05 20.214-2.917 39.454-13.167 38.774-27.862-.199-2.241-.336-4.5-.523-6.708a90.833 90.833 0 0121.754 3.083c5.25 1.415 10.675-1.631 12.199-6.855.294-1.009.557-1.844.826-2.626 6.596-19.165 31.319-33.795 39.888-35.48 5.717 6.602 16.203 33.348 9.608 52.513-2.372 6.894-5.674 12.524-9.81 16.733a10.002 10.002 0 00-1.158 12.603c10.082 14.942 15.419 32.407 15.438 50.511l-1.064 57.639c-3.798 35.856-20.627 81.174-30.044 87.728a10 10 0 00-.747 15.841c21.596 18.273 32.895 51.844 32.895 75.561 0 5.522 4.478 10 10 10 5.523 0 10-4.478 10-10 0-24.81-10.216-59.974-32.453-83.669 14.925-20.822 27.377-65.653 30.287-93.82.028-.28.046-.562.051-.843l1.073-58.159.002-.184c0-19.579-5.101-38.555-14.814-55.328 3.802-5.203 6.902-11.264 9.257-18.104a53.31 53.31 0 00.673-2.113c18.611 10.244 16.724 45.932 16.701 46.313-.343 5.393 3.581 10.073 8.96 10.581 1.75.193 43.008 5.453 56.605 66.355 13.463 60.293-26.984 80.734-28.656 81.548a10 10 0 00-.112 18.044c.225.109 22.58 11.265 22.58 36.949 0 26.133-30.246 45.993-30.846 46.382-4.65 2.968-6.02 9.143-3.057 13.799a9.993 9.993 0 008.446 4.632 9.956 9.956 0 005.359-1.564c1.637-1.042 40.097-25.945 40.097-63.248 0-22.415-11.255-37.249-20.792-45.795zm-191.37-230.564l-19.445-5.73c-3.629-13.98-12.529-25.6-25.196-32.798a52.269 52.269 0 00-10.879-4.639c.229-.132.454-.27.668-.418l41.122 13.76c.448.15.9.225 1.351.268 6.832 7.932 10.915 17.683 12.379 29.557zm-36.702-74.334c.45.474.932.919 1.46 1.303 6.702 4.887 9.729 12.808 10.047 26.716l-25.853-8.651c-.165-.492-.357-.98-.604-1.455-4.129-7.947-5.184-15.726-3.212-24.055zm-5.543-14.541l-9.904-3.349a27.904 27.904 0 00-.163-.863c-2.076-8.605-2.814-18.825-2.895-28.833 5.198 11.683 9.494 22.643 12.962 33.045zm-80.454 37.381c4.686.535 16.355 4.449 27.133 12.3-6.491 3.417-12.347 8.206-17.056 14.287a53.378 53.378 0 00-7.74 13.8 67.662 67.662 0 01-5.836 11.798c-8.369-17.943-1.31-44.97 3.499-52.185zm37.822 106.22c-7.786-.249-25.589-4.249-50.426-11.313-3.3-.83-9.475-2.442-9.06-5.983-.1-.817-.203-3.61 2.619-5.24 14.716-8.497 26.296-22.366 32.606-39.053a41.367 41.367 0 016.004-10.697c5.135-6.631 12.028-11.277 19.586-13.749 1.031-.51 4.985-1.447 6.737-1.597a41.473 41.473 0 016.161-.475c6.87 0 13.798 1.717 20.081 5.287 10.089 5.732 17.104 15.07 19.753 26.293 2.614 11.071.483 22.837-5.846 32.28-10.593 15.806-28.618 24.885-48.215 24.247zm64.974-32.087a53.375 53.375 0 002.16-15.359l17.144 5.052c-2.85 3.776-9.949 7.835-19.304 10.307zm50.153-39.339a110.59 110.59 0 00-19.802-1.791c-.68.001-1.975-.046-2.636.033-2.991-8.014-7.364-15.089-13.112-21.163.061-.417.106-.838.115-1.271.078-4.067.02-8.387-.381-12.771 12.28-5.953 22.352-7.36 29.948-4.157 7.513 3.168 13.496 11.123 17.811 23.656-4.51 4.91-8.816 10.757-11.943 17.464z" />
    <path class="color"
        d="M178.64 273.881c-6.815 0-12.339 5.524-12.339 12.339s5.524 12.339 12.339 12.339 12.34-5.524 12.34-12.339c-.001-6.815-5.525-12.339-12.34-12.339z" />
    <circle class="color" cx="303.81" cy="286.22" transform="rotate(-13.34 303.18 286.169)" r="12.339" />
    <path class="color"
        d="M203.783 137.118c-1.673.467-16.604 5.091-25.597 23.329-2.442 4.953-.407 10.949 4.546 13.392a10.002 10.002 0 0013.392-4.546c5.054-10.248 12.881-12.856 13.211-12.963l-.171.051c13.261-3.705 7.88-22.967-5.381-19.263zM234.823 296.741h-.061c-13.689.03-26.208 10.068-32.671 26.196-2.989 7.458-2.123 16.105 2.261 22.569 3.352 4.942 8.351 7.774 13.72 7.774h.033l33.66-.073c5.381-.012 10.377-2.867 13.706-7.833 4.282-6.388 5.115-15.255 2.122-22.591-6.558-16.069-19.11-26.042-32.77-26.042zm20.681 41.951c-.628.939-1.953 2.512-3.765 2.516l-33.659.073h-.008c-1.814 0-3.152-1.572-3.788-2.51-1.756-2.588-2.762-7.107-1.054-11.37 4.605-11.491 12.865-18.642 21.558-18.66h.035c8.685 0 16.982 7.114 21.659 18.576 1.737 4.258.761 8.782-.978 11.375zM192.071 241.205c-6.822-5.894-17.125-5.896-23.967-.008a6 6 0 007.828 9.096c2.333-2.008 5.976-2.01 8.293-.008a6 6 0 107.846-9.08zM311.68 249.364a6 6 0 00-8.061-8.891c-2.28 2.066-5.92 2.161-8.29.221a5.995 5.995 0 00-8.443.836 5.997 5.997 0 00.836 8.443c3.356 2.752 7.484 4.118 11.609 4.118 4.442.001 8.881-1.583 12.349-4.727zM60.255 58.691l6.093 17.133c.261.734.777 1.315 1.429 1.609L83 84.291c2.151.969 2.151 4.395 0 5.364l-15.222 6.858c-.652.294-1.168.875-1.429 1.608l-6.093 17.133c-.861 2.421-3.905 2.421-4.766 0l-6.093-17.133c-.261-.734-.777-1.315-1.429-1.608l-15.222-6.858c-2.15-.969-2.15-4.395 0-5.364l15.222-6.858c.652-.294 1.168-.875 1.429-1.609l6.093-17.133c.86-2.421 3.904-2.421 4.765 0z" />
    <circle class="color" cx="14.208" cy="162.977" r="12.187" />
    <path class="color"
        d="M452.718 20.813l8.215 23.098c.352.989 1.048 1.772 1.927 2.168l20.521 9.246c2.899 1.306 2.899 5.925 0 7.232l-20.521 9.246c-.879.396-1.575 1.179-1.927 2.169l-8.215 23.097c-1.16 3.263-5.264 3.263-6.425 0l-8.214-23.097c-.352-.989-1.048-1.773-1.927-2.169l-20.521-9.246c-2.899-1.306-2.899-5.925 0-7.232l20.521-9.246c.879-.396 1.575-1.18 1.927-2.168l8.214-23.098c1.16-3.263 5.264-3.263 6.425 0z" />
</svg>